<svg xmlns="http://www.w3.org/2000/svg" viewBox="0 0 100 100">
  <g>
    <path
      d="M50,50 C50,26 34,10 50,4 C66,10 70,26 58,38 C55,42 52,46 50,50 Z"
      fill="#14B8A6"
      transform="rotate(0 50 50)"
    />
    <path
      d="M50,50 C50,26 34,10 50,4 C66,10 70,26 58,38 C55,42 52,46 50,50 Z"
      fill="#3B82C4"
      transform="rotate(120 50 50)"
    />
    <path
      d="M50,50 C50,26 34,10 50,4 C66,10 70,26 58,38 C55,42 52,46 50,50 Z"
      fill="#3FAE72"
      transform="rotate(240 50 50)"
    />
    <circle cx="50" cy="50" r="9" fill="#FFFFFF" />
  </g>
</svg>
